<svg xmlns="http://www.w3.org/2000/svg" viewBox="0 0 80 80" shape-rendering="crispEdges" fill="#111111"><title>dynamical.org</title><rect x="12" y="8" width="4" height="4"/><rect x="16" y="8" width="4" height="4"/><rect x="20" y="8" width="4" height="4"/><rect x="24" y="8" width="4" height="4"/><rect x="28" y="8" width="4" height="4"/><rect x="32" y="8" width="4" height="4"/><rect x="36" y="8" width="4" height="4"/><rect x="40" y="8" width="4" height="4"/><rect x="12" y="12" width="4" height="4"/><rect x="16" y="12" width="4" height="4"/><rect x="20" y="12" width="4" height="4"/><rect x="24" y="12" width="4" height="4"/><rect x="28" y="12" width="4" height="4"/><rect x="32" y="12" width="4" height="4"/><rect x="36" y="12" width="4" height="4"/><rect x="40" y="12" width="4" height="4"/><rect x="12" y="16" width="4" height="4"/><rect x="16" y="16" width="4" height="4"/><rect x="20" y="16" width="4" height="4"/><rect x="24" y="16" width="4" height="4"/><rect x="28" y="16" width="4" height="4"/><rect x="44" y="16" width="4" height="4"/><rect x="48" y="16" width="4" height="4"/><rect x="52" y="16" width="4" height="4"/><rect x="12" y="20" width="4" height="4"/><rect x="16" y="20" width="4" height="4"/><rect x="20" y="20" width="4" height="4"/><rect x="44" y="20" width="4" height="4"/><rect x="48" y="20" width="4" height="4"/><rect x="52" y="20" width="4" height="4"/><rect x="56" y="20" width="4" height="4"/><rect x="60" y="20" width="4" height="4"/><rect x="12" y="24" width="4" height="4"/><rect x="16" y="24" width="4" height="4"/><rect x="20" y="24" width="4" height="4"/><rect x="44" y="24" width="4" height="4"/><rect x="48" y="24" width="4" height="4"/><rect x="52" y="24" width="4" height="4"/><rect x="56" y="24" width="4" height="4"/><rect x="60" y="24" width="4" height="4"/><rect x="12" y="28" width="4" height="4"/><rect x="16" y="28" width="4" height="4"/><rect x="44" y="28" width="4" height="4"/><rect x="48" y="28" width="4" height="4"/><rect x="52" y="28" width="4" height="4"/><rect x="56" y="28" width="4" height="4"/><rect x="60" y="28" width="4" height="4"/><rect x="64" y="28" width="4" height="4"/><rect x="12" y="32" width="4" height="4"/><rect x="16" y="32" width="4" height="4"/><rect x="44" y="32" width="4" height="4"/><rect x="48" y="32" width="4" height="4"/><rect x="52" y="32" width="4" height="4"/><rect x="56" y="32" width="4" height="4"/><rect x="60" y="32" width="4" height="4"/><rect x="64" y="32" width="4" height="4"/><rect x="12" y="36" width="4" height="4"/><rect x="16" y="36" width="4" height="4"/><rect x="44" y="36" width="4" height="4"/><rect x="48" y="36" width="4" height="4"/><rect x="52" y="36" width="4" height="4"/><rect x="56" y="36" width="4" height="4"/><rect x="60" y="36" width="4" height="4"/><rect x="64" y="36" width="4" height="4"/><rect x="12" y="40" width="4" height="4"/><rect x="16" y="40" width="4" height="4"/><rect x="44" y="40" width="4" height="4"/><rect x="48" y="40" width="4" height="4"/><rect x="52" y="40" width="4" height="4"/><rect x="56" y="40" width="4" height="4"/><rect x="60" y="40" width="4" height="4"/><rect x="64" y="40" width="4" height="4"/><rect x="12" y="44" width="4" height="4"/><rect x="16" y="44" width="4" height="4"/><rect x="44" y="44" width="4" height="4"/><rect x="48" y="44" width="4" height="4"/><rect x="52" y="44" width="4" height="4"/><rect x="56" y="44" width="4" height="4"/><rect x="60" y="44" width="4" height="4"/><rect x="64" y="44" width="4" height="4"/><rect x="12" y="48" width="4" height="4"/><rect x="16" y="48" width="4" height="4"/><rect x="44" y="48" width="4" height="4"/><rect x="48" y="48" width="4" height="4"/><rect x="52" y="48" width="4" height="4"/><rect x="56" y="48" width="4" height="4"/><rect x="60" y="48" width="4" height="4"/><rect x="64" y="48" width="4" height="4"/><rect x="12" y="52" width="4" height="4"/><rect x="16" y="52" width="4" height="4"/><rect x="20" y="52" width="4" height="4"/><rect x="44" y="52" width="4" height="4"/><rect x="48" y="52" width="4" height="4"/><rect x="52" y="52" width="4" height="4"/><rect x="56" y="52" width="4" height="4"/><rect x="60" y="52" width="4" height="4"/><rect x="12" y="56" width="4" height="4"/><rect x="16" y="56" width="4" height="4"/><rect x="20" y="56" width="4" height="4"/><rect x="44" y="56" width="4" height="4"/><rect x="48" y="56" width="4" height="4"/><rect x="52" y="56" width="4" height="4"/><rect x="56" y="56" width="4" height="4"/><rect x="60" y="56" width="4" height="4"/><rect x="12" y="60" width="4" height="4"/><rect x="16" y="60" width="4" height="4"/><rect x="20" y="60" width="4" height="4"/><rect x="24" y="60" width="4" height="4"/><rect x="28" y="60" width="4" height="4"/><rect x="44" y="60" width="4" height="4"/><rect x="48" y="60" width="4" height="4"/><rect x="52" y="60" width="4" height="4"/><rect x="12" y="64" width="4" height="4"/><rect x="16" y="64" width="4" height="4"/><rect x="20" y="64" width="4" height="4"/><rect x="24" y="64" width="4" height="4"/><rect x="28" y="64" width="4" height="4"/><rect x="32" y="64" width="4" height="4"/><rect x="36" y="64" width="4" height="4"/><rect x="40" y="64" width="4" height="4"/><rect x="12" y="68" width="4" height="4"/><rect x="16" y="68" width="4" height="4"/><rect x="20" y="68" width="4" height="4"/><rect x="24" y="68" width="4" height="4"/><rect x="28" y="68" width="4" height="4"/><rect x="32" y="68" width="4" height="4"/><rect x="36" y="68" width="4" height="4"/><rect x="40" y="68" width="4" height="4"/></svg>